<svg width="31" height="31" viewBox="0 0 31 31" fill="none" xmlns="http://www.w3.org/2000/svg">
<path fill-rule="evenodd" clip-rule="evenodd" d="M15.7745 30.6384C24.0936 30.6384 30.8375 23.9227 30.8375 15.6384C30.8375 7.35416 24.0936 0.638428 15.7745 0.638428C7.45551 0.638428 0.711609 7.35416 0.711609 15.6384C0.711609 17.1664 0.941045 18.6411 1.36748 20.0301C1.4763 20.0496 1.65224 20.0942 1.9086 20.169L1.50828 13.8965C1.50828 13.7815 1.70304 13.7262 1.88147 13.6755C1.9794 13.6477 2.07241 13.6213 2.12561 13.5872C2.27088 13.4958 5.26252 14.5835 5.42233 14.6558L9.24794 16.379C10.2358 15.7581 11.4174 15.5077 12.5796 15.6762L16.0566 11.4547C16.1001 8.08526 18.8604 5.37043 22.255 5.36561C25.4269 5.39931 28.0564 7.80608 28.3566 10.9397C28.6762 14.3284 26.1775 17.3321 22.7683 17.6546L16.9766 21.7702C16.6231 23.5752 15.3253 25.053 13.5723 25.6403C10.8847 26.5452 7.96466 25.1108 7.05911 22.4344L5.04461 21.7702C4.89525 21.7229 2.1538 20.5872 1.41123 20.1701C3.34045 26.2394 9.04162 30.6384 15.7745 30.6384ZM25.3545 11.5269C25.3545 13.2283 23.9669 14.6075 22.2552 14.6075C20.5435 14.6075 19.1559 13.2283 19.1559 11.5269C19.1559 9.82545 20.5435 8.44619 22.2552 8.44619C23.9669 8.44619 25.3545 9.82545 25.3545 11.5269ZM24.3235 11.5269C24.3235 12.662 23.3977 13.5823 22.2557 13.5823C21.1137 13.5823 20.1879 12.662 20.1879 11.5269C20.1879 10.3917 21.1137 9.4715 22.2557 9.4715C23.3977 9.4715 24.3235 10.3917 24.3235 11.5269ZM10.5804 23.5416C10.9968 23.7437 11.4568 23.8496 11.9217 23.8496C12.2752 23.8496 12.619 23.7919 12.958 23.6812C13.7376 23.4116 14.372 22.8484 14.7303 22.1119C15.4761 20.5764 14.8272 18.7376 13.2873 17.9964C13.0258 17.8712 12.7207 17.9771 12.5948 18.2322C12.4689 18.4922 12.5754 18.7954 12.8321 18.9206C12.866 18.935 12.8999 18.9494 12.9338 18.9687C13.9507 19.4886 14.3429 20.7256 13.82 21.7365C13.297 22.7473 12.0476 23.1372 11.0356 22.6174C10.7741 22.4922 10.469 22.5981 10.3431 22.8532C10.2172 23.1132 10.3237 23.4164 10.5804 23.5416Z" fill="#FFB548"/>
</svg>
