<svg width="31" height="31" viewBox="0 0 31 31" fill="none" xmlns="http://www.w3.org/2000/svg">
<path d="M10.5512 3.28812C12.1355 3.90933 13.6669 4.7298 15.1103 5.73195C15.2746 5.8433 15.4623 5.90191 15.6501 5.90191C15.8379 5.90191 16.0256 5.8433 16.1899 5.73195C17.6333 4.7298 19.1647 3.90347 20.749 3.28226C21.1069 3.1416 21.3474 2.78997 21.3416 2.40318C21.3416 2.01638 21.101 1.67061 20.7372 1.53582C17.5688 0.334414 13.7314 0.334414 10.5688 1.53582C10.2109 1.67061 9.96448 2.02224 9.96448 2.40318C9.96448 2.78411 10.1874 3.14746 10.5512 3.28812Z" fill="#FFB548"/>
<path d="M24.1586 3.29334C23.8593 3.08823 23.4779 3.07064 23.1552 3.25232C21.4008 4.26033 19.7051 5.41485 18.1033 6.68658C17.892 6.85654 17.763 7.10854 17.7512 7.37813C17.7395 7.64771 17.8451 7.91143 18.0387 8.09897C21.3597 11.2578 25.9599 20.9452 27.016 25.3992C24.7277 21.5313 19.623 12.4299 16.2843 9.31796C15.9264 8.98391 15.3631 8.98391 15.0052 9.31796C11.6607 12.4299 6.57358 21.5371 4.28524 25.4109C5.34139 20.9569 9.9298 11.2578 13.2508 8.09897C13.4503 7.91143 13.5559 7.64771 13.5442 7.37813C13.5325 7.10854 13.4034 6.85654 13.1921 6.68658C11.5903 5.41485 9.88873 4.26033 8.14021 3.25232C7.82923 3.07064 7.4361 3.08823 7.13686 3.29334C3.05893 6.10053 0.623901 10.7128 0.623901 15.6356C0.623901 19.234 1.92063 22.7034 4.28524 25.4109C7.11339 28.728 11.25 30.6385 15.6448 30.6385C20.0396 30.6385 24.182 28.7339 27.016 25.4051C29.3689 22.7092 30.6656 19.2398 30.6656 15.6356C30.6656 10.7128 28.2306 6.10053 24.1586 3.29334Z" fill="#FFB548"/>
</svg>
